<svg xmlns="http://www.w3.org/2000/svg" viewBox="0 0 26 26">
  <defs>
    <style>
      .cls-1 {
        fill: none;
      }

      .cls-2 {
        fill: #fff;
      }
    </style>
  </defs>
  <g id="Group_9" data-name="Group 9" transform="translate(-1122 -25)">
    <rect id="Rectangle_4" data-name="Rectangle 4" class="cls-1" width="26" height="26" transform="translate(1122 25)"/>
    <g id="user-2" transform="translate(1065.873 28)">
      <g id="Group_26" data-name="Group 26" transform="translate(61.127)">
        <path id="Path_12" data-name="Path 12" class="cls-2" d="M73.366,12.987a2.638,2.638,0,0,1-2.66-2.4,4.512,4.512,0,0,0,1.04-1.028,6.248,6.248,0,0,0,1.126-2.937.448.448,0,0,0,.113-.159,4.847,4.847,0,0,0,.376-1.886A4.424,4.424,0,0,0,69.118,0a3.939,3.939,0,0,0-1.766.419,3.1,3.1,0,0,0-.624.112,3.508,3.508,0,0,0-2.2,2.006,4.982,4.982,0,0,0-.247,3.27,5.27,5.27,0,0,0,.229.693.447.447,0,0,0,.106.154,5.623,5.623,0,0,0,2.16,3.929,2.639,2.639,0,0,1-2.661,2.4,3.094,3.094,0,0,0-2.985,3.089V19.55a.45.45,0,0,0,.45.45H75.9a.45.45,0,0,0,.45-.45V16.075A3.094,3.094,0,0,0,73.366,12.987ZM66.977,1.4a2.219,2.219,0,0,1,.516-.084.45.45,0,0,0,.189-.051A3.06,3.06,0,0,1,69.118.9,3.524,3.524,0,0,1,72.46,4.576c0,.061,0,.121,0,.182a1.963,1.963,0,0,0-1.4-.589H67.984a.838.838,0,0,1-.779-.526.552.552,0,0,0-1.046.069A4.177,4.177,0,0,1,65.14,5.535C64.687,3.672,65.5,1.822,66.977,1.4Zm-.392,7.789a5.3,5.3,0,0,1-1.091-2.741A5.1,5.1,0,0,0,66.8,4.609a1.757,1.757,0,0,0,.14.116,1.726,1.726,0,0,0,1.04.345h3.069a1.07,1.07,0,0,1,.976.633s0,.006,0,.009c0,2.542-1.475,4.61-3.288,4.61A2.816,2.816,0,0,1,66.585,9.185Zm1.035,1.84a3.277,3.277,0,0,0,2.239,0,3.526,3.526,0,0,0,1.31,2.123L68.8,16.518a.078.078,0,0,1-.127,0L66.311,13.15A3.527,3.527,0,0,0,67.62,11.025ZM75.451,19.1H62.028V16.075a2.193,2.193,0,0,1,2.191-2.191,3.86,3.86,0,0,0,1.314-.278l2.407,3.428a.979.979,0,0,0,.8.416h0a.979.979,0,0,0,.8-.416l2.407-3.428a3.707,3.707,0,0,0,1.312.277,2.193,2.193,0,0,1,2.191,2.191Z" transform="translate(-61.127)"/>
      </g>
    </g>
  </g>
</svg>
