<svg id="Group_34" data-name="Group 34" xmlns="http://www.w3.org/2000/svg" viewBox="0 0 130 99.741">
  <defs>
    <style>
      .cls-1 {
        fill: #2db4b8;
      }

      .cls-2 {
        fill: #e12a23;
      }

      .cls-3 {
        fill: #fff;
      }
    </style>
  </defs>
  <g id="Group_29" data-name="Group 29" transform="translate(20.347 4.743)">
    <path id="Path_120" data-name="Path 120" class="cls-1" d="M87.577,14.79,45.224,47.61,42.9,44.622,87.577,10" transform="translate(-42.9 -10)"/>
    <path id="Path_121" data-name="Path 121" class="cls-1" d="M137.1,10l44.63,34.528-2.324,2.988L137.1,14.79" transform="translate(-92.423 -10)"/>
  </g>
  <path id="Path_122" data-name="Path 122" class="cls-2" d="M130,127.152a13.319,13.319,0,0,1-13.28,13.28H13.28A13.319,13.319,0,0,1,0,127.152V90.68A13.319,13.319,0,0,1,13.28,77.4H116.72A13.319,13.319,0,0,1,130,90.68Z" transform="translate(0 -40.691)"/>
  <g id="Group_33" data-name="Group 33" transform="translate(9.296 56.582)">
    <g id="Group_31" data-name="Group 31">
      <g id="Group_30" data-name="Group 30" transform="translate(22.86)">
        <path id="Path_123" data-name="Path 123" class="cls-3" d="M86.2,121.482a10.491,10.491,0,0,0-3.273-1.565,13.758,13.758,0,0,0-4.316-.617,13.965,13.965,0,0,0-4.316.617,9.14,9.14,0,0,0-3.415,1.85,8.626,8.626,0,0,0-2.277,3.13,12.954,12.954,0,0,0-.047,8.869,8.973,8.973,0,0,0,2.039,3.083,7.91,7.91,0,0,0,2.988,1.755,11.173,11.173,0,0,0,3.557.569,9.949,9.949,0,0,0,4.174-.759v1.423a2.493,2.493,0,0,1-1.328,2.419,7.144,7.144,0,0,1-3.6.759,10.323,10.323,0,0,1-3.178-.474,11.958,11.958,0,0,1-2.751-1.138,3.57,3.57,0,0,0-.9,1.091,3.248,3.248,0,0,0-.379,1.707,3.416,3.416,0,0,0,2.182,3.32,14.688,14.688,0,0,0,5.976,1.043,17.051,17.051,0,0,0,4.174-.522,9.579,9.579,0,0,0,3.367-1.565,7.663,7.663,0,0,0,3.13-6.5V124.565a3.155,3.155,0,0,0-.474-1.85A8.609,8.609,0,0,0,86.2,121.482ZM81.175,133.1a4.268,4.268,0,0,1-2.7.806,3.431,3.431,0,0,1-2.609-1.043,5,5,0,0,1-1.043-3.51,4.6,4.6,0,0,1,1.043-3.273,3.907,3.907,0,0,1,3.083-1.138,4.135,4.135,0,0,1,1.423.19,4,4,0,0,1,.854.332V133.1Z" transform="translate(-67.8 -119.3)"/>
        <path id="Path_124" data-name="Path 124" class="cls-3" d="M132.242,121.2a10.277,10.277,0,0,0-3.178-1.423,18.265,18.265,0,0,0-4.126-.474,24.565,24.565,0,0,0-3.13.19,13.988,13.988,0,0,0-2.846.664,3.855,3.855,0,0,0-1.613,1.091,2.762,2.762,0,0,0-.522,1.755,3.83,3.83,0,0,0,.379,1.613,2.826,2.826,0,0,0,.9,1.138,18.154,18.154,0,0,1,2.7-.854,13.351,13.351,0,0,1,3.083-.332,7.525,7.525,0,0,1,3.083.522,1.787,1.787,0,0,1,1.043,1.755v.285l-5.5.569a9.135,9.135,0,0,0-5.312,1.945,5.682,5.682,0,0,0-1.707,4.411,6.053,6.053,0,0,0,.711,2.988,5.974,5.974,0,0,0,1.945,2.134,8.339,8.339,0,0,0,3.035,1.233,17.1,17.1,0,0,0,3.984.427c3.273,0,5.834-.522,7.636-1.613a5,5,0,0,0,1.423-1.186,2.484,2.484,0,0,0,.617-1.755v-9.343a7.563,7.563,0,0,0-.711-3.415A4.943,4.943,0,0,0,132.242,121.2Zm-4.126,13.991a3.428,3.428,0,0,1-1.281.379,9.579,9.579,0,0,1-1.565.142,3.58,3.58,0,0,1-2.182-.522,1.686,1.686,0,0,1-.664-1.375,1.246,1.246,0,0,1,.759-1.233,5.27,5.27,0,0,1,1.945-.522l2.988-.237v3.367Z" transform="translate(-92.877 -119.3)"/>
        <path id="Path_125" data-name="Path 125" class="cls-3" d="M178.442,121.2a10.277,10.277,0,0,0-3.178-1.423,18.265,18.265,0,0,0-4.126-.474,24.565,24.565,0,0,0-3.13.19,13.988,13.988,0,0,0-2.846.664,3.855,3.855,0,0,0-1.613,1.091,2.762,2.762,0,0,0-.522,1.755,3.83,3.83,0,0,0,.379,1.613,2.827,2.827,0,0,0,.9,1.138,18.154,18.154,0,0,1,2.7-.854,13.351,13.351,0,0,1,3.083-.332,7.525,7.525,0,0,1,3.083.522,1.787,1.787,0,0,1,1.043,1.755v.285l-5.5.569a9.135,9.135,0,0,0-5.312,1.945,5.682,5.682,0,0,0-1.707,4.411,6.053,6.053,0,0,0,.711,2.988,5.974,5.974,0,0,0,1.945,2.134,8.339,8.339,0,0,0,3.035,1.233,17.1,17.1,0,0,0,3.984.427c3.273,0,5.834-.522,7.636-1.613a5,5,0,0,0,1.423-1.186,2.484,2.484,0,0,0,.617-1.755v-9.343a7.563,7.563,0,0,0-.711-3.415A4.943,4.943,0,0,0,178.442,121.2Zm-4.126,13.991a3.428,3.428,0,0,1-1.281.379,9.579,9.579,0,0,1-1.565.142,3.58,3.58,0,0,1-2.182-.522,1.686,1.686,0,0,1-.664-1.375,1.246,1.246,0,0,1,.759-1.233,5.27,5.27,0,0,1,1.945-.522l2.988-.237v3.367Z" transform="translate(-117.165 -119.3)"/>
        <path id="Path_126" data-name="Path 126" class="cls-3" d="M221.243,120.259a5.63,5.63,0,0,0-3.178-.759,13.859,13.859,0,0,0-2.419.19,16.7,16.7,0,0,0-2.324.522,17.625,17.625,0,0,0-2.087.759,7,7,0,0,0-1.66,1,4.256,4.256,0,0,0-1.043,1.233,3.579,3.579,0,0,0-.332,1.66V137.38a4.264,4.264,0,0,0,.285,1.707,2.828,2.828,0,0,0,.759,1.043,3.233,3.233,0,0,0,1.233.522,8.661,8.661,0,0,0,1.66.142,11.266,11.266,0,0,0,1.85-.142,10.057,10.057,0,0,0,1.328-.237V126.14a4.855,4.855,0,0,1,1.328-.427c.522-.142,1.091-.237,1.66-.332s1.186-.19,1.8-.237,1.233-.095,1.8-.095c.142-.285.285-.664.427-1.043a4.677,4.677,0,0,0,.142-1.138A3.145,3.145,0,0,0,221.243,120.259Z" transform="translate(-141.611 -119.405)"/>
      </g>
      <path id="Path_127" data-name="Path 127" class="cls-3" d="M40.184,135.388l-3.6-1.613a.82.82,0,0,0-.474-.047h0a.776.776,0,0,0-.569.949c0,.095.047.142.095.237l.047.095a13.274,13.274,0,0,1-2.324.617h0a13.1,13.1,0,0,1-2.087.142,5.264,5.264,0,0,1-3.794-1.613,7.182,7.182,0,0,1-1.518-5.5,4.611,4.611,0,0,1,1.138-2.8A3.814,3.814,0,0,1,28.279,125a4,4,0,0,1,1.755-.332,2.975,2.975,0,0,1,2.324.854,3.886,3.886,0,0,1,.9,2.039l-1.85.285-.047-.427a.763.763,0,0,0-.569-.617.772.772,0,0,0-.806.285l-2.371,3.13a.814.814,0,0,0,.142,1.091l3.13,2.371a.8.8,0,0,0,.474.142h0a.749.749,0,0,0,.759-.759.355.355,0,0,0-.047-.237l-.047-.19,4.933-.759a4.2,4.2,0,0,0,2.229-.949,2.936,2.936,0,0,0,.806-2.182,10.748,10.748,0,0,0-.711-3.937,8.052,8.052,0,0,0-2.039-2.8,10.716,10.716,0,0,0-3.13-1.85,12.179,12.179,0,0,0-4.031-.664,11.642,11.642,0,0,0-3.842.617,10.29,10.29,0,0,0-3.367,1.9,9.4,9.4,0,0,0-2.371,3.273,11.14,11.14,0,0,0-.9,4.743,11.976,11.976,0,0,0,.9,4.885,12.253,12.253,0,0,0,1.707,2.751,5.358,5.358,0,0,0,.9.854c.047,0,.047.047.095.047a10.064,10.064,0,0,0,2.039,1.328,13.3,13.3,0,0,0,6.5,1.328,7.344,7.344,0,0,0,1.043-.047h.095a15.089,15.089,0,0,0,3.035-.569h0c.047,0,.095-.047.142-.047H36.1c.19-.047.427-.142.617-.19h0c.047,0,.095-.047.142-.047h.047a8.444,8.444,0,0,0,.806-.332l.047.095a.771.771,0,0,0,1.423,0l1.613-3.6A1.3,1.3,0,0,0,40.184,135.388Z" transform="translate(-19.6 -119.405)"/>
    </g>
    <g id="Group_32" data-name="Group 32" transform="translate(106.001 0.047)">
      <path id="Path_128" data-name="Path 128" class="cls-1" d="M252.207,160.285A1,1,0,0,0,250.5,161a.832.832,0,0,0,.285.711,1,1,0,0,0,1.707-.711A.9.9,0,0,0,252.207,160.285Z" transform="translate(-246.99 -140.744)"/>
      <path id="Path_129" data-name="Path 129" class="cls-1" d="M247.843,153.457a2.15,2.15,0,0,0,.522-.9,3.115,3.115,0,0,0,.19-1.186,2.19,2.19,0,0,0-.237-1.091.673.673,0,0,0-.664-.379,1.385,1.385,0,0,0-.427.095,1.1,1.1,0,0,0-.332.332,3.271,3.271,0,0,1,.142.379,1.778,1.778,0,0,1,.047.522,1.252,1.252,0,0,1-.332.9,1.177,1.177,0,0,1-.949.379,2.382,2.382,0,0,1-.569-.095.738.738,0,0,1-.379-.285,1.033,1.033,0,0,1-.237-.379,1.685,1.685,0,0,1-.095-.474,1.705,1.705,0,0,1,.095-.522l.142-.427c-.095-.095-.19-.142-.285-.237a.841.841,0,0,0-1.091.285,2.023,2.023,0,0,0-.285,1.138,2.552,2.552,0,0,0,.19,1.043,3.279,3.279,0,0,0,.474.9,2.815,2.815,0,0,0,.854.617,3.107,3.107,0,0,0,1.186.237,2.783,2.783,0,0,0,1.091-.19A4.088,4.088,0,0,0,247.843,153.457Z" transform="translate(-243.1 -135.434)"/>
      <path id="Path_130" data-name="Path 130" class="cls-1" d="M244.059,142.048a2.691,2.691,0,0,0,.854.569,2.783,2.783,0,0,0,1.091.19,2.5,2.5,0,0,0,1.091-.19,2.692,2.692,0,0,0,.854-.569,1.985,1.985,0,0,0,.522-.854,2.782,2.782,0,0,0,.19-1.091,2.636,2.636,0,0,0-.19-1.091,1.985,1.985,0,0,0-.522-.854,2.691,2.691,0,0,0-.854-.569,2.87,2.87,0,0,0-1.138-.19,2.782,2.782,0,0,0-1.091.19,2.691,2.691,0,0,0-.854.569,1.985,1.985,0,0,0-.522.854,2.783,2.783,0,0,0-.19,1.091,2.636,2.636,0,0,0,.19,1.091A3.823,3.823,0,0,0,244.059,142.048Zm1-2.609a2.016,2.016,0,0,1,1.9,0,.83.83,0,0,1,0,1.328A1.868,1.868,0,0,1,246,141a1.744,1.744,0,0,1-.949-.237.83.83,0,0,1,0-1.328Z" transform="translate(-243.205 -128.863)"/>
      <path id="Path_131" data-name="Path 131" class="cls-1" d="M243.4,124.665a4.042,4.042,0,0,0,.142,1.091,3.56,3.56,0,0,0,.379.854,2.065,2.065,0,0,0,.285.332.58.58,0,0,0,.427.142h3.13a1.052,1.052,0,0,0,.427-.047.474.474,0,0,0,.237-.19l.142-.285c0-.142.047-.237.047-.427a1.612,1.612,0,0,0-.047-.474c0-.142-.047-.237-.047-.332h-3.6c-.047-.047-.047-.142-.095-.237a.7.7,0,0,1-.047-.332.8.8,0,0,1,.142-.474.462.462,0,0,1,.427-.19h2.466a1.053,1.053,0,0,0,.427-.047.473.473,0,0,0,.237-.19l.142-.285c0-.142.047-.237.047-.427a1.313,1.313,0,0,0-.047-.427,2.674,2.674,0,0,0-.047-.332h-3.557a1.036,1.036,0,0,1-.142-.237.7.7,0,0,1-.047-.332.8.8,0,0,1,.142-.474.6.6,0,0,1,.427-.19h2.466a1.053,1.053,0,0,0,.427-.047.474.474,0,0,0,.237-.19l.142-.285c0-.142.047-.237.047-.427a1.613,1.613,0,0,0-.047-.474c0-.142-.047-.237-.047-.332h-3.225a1.806,1.806,0,0,0-.9.19,1.394,1.394,0,0,0-.569.474,2.9,2.9,0,0,0-.332.664,4.15,4.15,0,0,0-.095.759,2.853,2.853,0,0,0,.142.949,4.785,4.785,0,0,0,.332.711,1.65,1.65,0,0,0-.332.711A1.242,1.242,0,0,0,243.4,124.665Z" transform="translate(-243.258 -119.4)"/>
    </g>
  </g>
  <path id="Path_132" data-name="Path 132" class="cls-2" d="M136.247,6.592A7.136,7.136,0,0,0,129.133,0h-.569a7.172,7.172,0,0,0,.569,14.323h.569A7.169,7.169,0,0,0,136.247,6.592Z" transform="translate(-64.11)"/>
</svg>
